<?xml version="1.0" encoding="UTF-8" standalone="no"?>
<svg width="1074.59" height="288" viewBox="-24 -24 1074.59 288"
  
  
  
   version="1.1"
   id="svg8"
   xmlns="http://www.w3.org/2000/svg"
   xmlns:svg="http://www.w3.org/2000/svg">
  <defs
     id="defs8" />
  <g
     transform="scale(0.234375)"
     id="g8">
    <g
       id="base">
      <circle
         fill="#F5F7FA"
         cx="512"
         cy="512"
         r="512"
         id="circle1" />
      <circle
         fill="#242B36"
         cx="512"
         cy="512"
         r="360"
         id="circle2" />
    </g>
    <g
       id="mascot-elephant">
      <g
         id="elephant-clearance"
         fill="#242B36"
         stroke="#242B36"
         stroke-width="39.451"
         stroke-linejoin="round"
         stroke-linecap="round">
        <path
           d="M566.17,175.21C538.94,175.18 519.93,181.16 497.03,196.94C494.32,198.82 491.55,200.68 489.29,202.16C487.16,203.56 485.18,205.12 482.67,205.68C477.69,206.78 472.57,207.35 467.5,207.82C443.29,210.14 428.23,216.62 413.58,231.1C395.36,249.12 386.06,276.45 389.67,301.88C393.27,327.31 403.49,346.11 425.73,368.29C441.89,384.42 459.98,396.71 477.02,403.9C494.06,411.07 510.09,413.2 522.13,408.69C529.88,405.78 539.21,397.58 542.74,390.5C551.32,373.37 550.19,350.99 542.73,333.57C542.3,332.66 540.68,331.72 540.34,333.25C539.27,336.46 539.19,340.17 538.77,343.51C536.19,363.67 531.37,376.93 524.09,383.92C516.81,390.9 507.02,391.96 493.5,387.45C474.91,381.24 457.9,370.2 440.9,353.27C415.19,327.68 406.56,304.44 412.28,276.69C418.32,247.32 441.99,229.12 474.29,229.12C478.91,229.12 484.36,229.3 488.81,227.82C488.81,227.82 488.83,227.82 488.83,227.82C490.14,227.37 492.27,226.15 495.02,224.43C508.47,216.1 520.49,205.63 535.82,200.72C563.04,192.03 590.6,196.12 612.79,212.09C623.19,219.58 631.72,228.44 642.29,242.78C663.51,271.58 682.25,289.88 699.99,298.89C705.28,301.59 719.48,303.3 727.7,304.27C739.87,305.69 752.38,300.57 766.46,290.12C772.18,285.88 786.12,270.16 786.12,270.13C786.12,270.13 792.91,261.25 797.75,251.25C804.75,236.75 810.13,240.31 811.57,239.48C813.11,238.6 810.79,238.55 814.18,239.33C819.48,240.56 824.02,240.24 824.89,240.43C826.71,240.81 825.94,241.11 827.75,241.89C831.48,243.5 826.01,260.45 823.96,269.4C822.19,277.13 812.87,293.68 809.72,297.51C806.04,301.97 791.45,319.33 788.8,321.92C776.46,333.94 767.59,339.12 752.03,346.94C731.31,357.34 709.42,360.92 683.94,360.93C659.73,360.93 644.23,361.41 631.97,366.66C619.71,371.9 611.95,380.57 605.69,393.67C591.67,422.96 603.19,456.96 612.96,485.78C615.51,493.3 617.91,501.23 621.7,508.26C622.62,509.99 623.74,511.55 625.66,509.96C628.1,508 630.31,505.73 632.5,503.51C632.5,503.51 639.36,496.58 639.36,496.58C639.67,496.28 639.76,495.83 639.6,495.42C639.6,495.42 635.77,485.39 635.77,485.39C635.77,485.39 635.77,485.38 635.77,485.38C624.88,456.8 620.46,437.32 621.24,421.59C621.95,406.77 624.57,400.03 632.69,391.92C637.15,387.46 639.87,385.23 645.68,383.84C651.48,382.44 660.45,381.96 676.89,381.4C718.07,380.01 738.08,375.63 765.05,362.17C780.04,354.68 796.71,341.88 808.25,329.73C808.36,329.72 808.48,329.67 808.57,329.63C808.57,329.63 810.28,327.79 810.28,327.79C810.28,327.79 810.32,327.76 810.32,327.76C810.32,327.76 813.54,324.02 813.54,324.02C813.55,324.01 813.56,323.99 813.57,323.98C813.57,323.98 816.31,320.42 816.31,320.42C817.45,319.66 818.41,317.56 819.3,316.47C819.86,315.76 820.73,314.57 820.72,314.44C843.39,281.58 856.63,244.73 844.24,227.36C838.02,218.67 814.32,216.75 804.24,219.33C797.6,221.03 785.58,232.26 776.08,248.32C771.39,256.25 760.3,268.69 758.88,270.07C752.38,276.39 744.07,280.39 738.91,281.82C731.92,283.73 718.75,283.31 712.35,280.74C699.26,275.52 684.05,261.42 665.7,237.23C648.08,213.98 633.13,198.5 617.58,188.79C602.04,179.09 585.9,175.23 566.17,175.21Z"
           id="path2" />
        <path
           d="M368.01,286.84C367.25,286.84 366.89,287.09 366.2,287.42C356.64,291.91 347.9,298.95 339.69,305.49C312.69,326.95 295.6,349.82 284.75,379.05C281.71,387.26 278.86,401.75 277.66,414.87C276.37,429.2 276.87,436.9 281.38,471.63C283.79,490.22 277.99,513.28 265.3,535.05C264.25,536.83 263.5,538.23 263.09,539.38C262.07,542.08 263.97,543.53 266.73,543.04C281.44,540.29 293.08,529.53 299.67,516.47C299.67,516.47 301.13,513.58 301.13,513.58C301.13,513.58 316.01,542.77 316.01,542.77C316.69,544.12 317.38,545.48 318.07,546.83C318.07,546.83 318.56,546.83 318.56,546.83C318.56,546.83 334.51,578.72 334.51,578.72C334.51,578.72 334.51,578.73 334.51,578.73C339.32,587.87 344.5,596.83 349.1,606.09C349.58,607.03 349.76,607.21 348.63,606.96C348.63,606.96 360.31,630.33 360.31,630.33C360.31,630.33 360.48,630.14 360.48,630.14C360.66,629.83 360.61,629.87 360.64,629.77C362.43,624.4 364.53,619.15 368.62,615.09C368.62,615.09 374.01,609.71 374.01,609.71C374.34,609.37 374.43,608.87 374.21,608.44C374.21,608.44 370.79,601.64 370.79,601.64C370.79,601.64 370.79,601.63 370.79,601.63C368.88,597.83 361.42,583.73 354.16,570.18C337.97,539.98 315.53,494.2 310.19,480.5C295,441.54 295,406.94 310.09,374.29C320.27,352.25 340.21,329.79 363.07,314.68C363.07,314.68 369.29,310.58 369.29,310.58C369.59,310.37 369.78,310.04 369.78,309.67C369.78,309.67 369.87,298.8 369.87,298.8C369.89,295.79 369.81,293.06 369.67,291.04C369.6,289.91 369.69,286.84 368.01,286.84Z"
           id="path3" />
        <path
           d="M506.78,482C498.13,481.98 488.63,484.18 478.15,488.53C462.71,494.91 447.69,508.04 440.53,521.47C434.74,532.33 432.36,542.94 432.51,557C432.56,562.06 432.32,567.59 433.36,572.58C434.38,577.1 438.31,577.05 442.36,577.46C442.36,577.46 442.36,577.45 442.36,577.45C445.15,577.72 449.27,578.02 451.64,579.71C452.63,580.4 456.01,582.63 456.01,579.98C454.25,564.14 449.94,546.49 458.76,531.9C464.16,522.95 473.22,514.99 482.94,509.74C492.67,504.48 503.04,501.99 510.88,503.63C516.18,504.74 520.38,507.17 524.88,512.5C533.88,523.14 538.53,536.56 545.45,548.5C546.15,549.71 547.6,553.11 549.32,553.15C549.32,553.15 549.33,553.15 549.33,553.15C552.44,553.2 555.93,550.77 558.55,549.39C560.81,548.2 566.84,545.93 565.82,542.57C563.77,535.82 559.81,529.51 556.49,523.35C551.43,513.94 545.83,504.22 543.07,500.76C533.19,488.33 521.2,482.03 506.78,482Z"
           id="path4" />
        <path
           d="M606.61,269.19C597.3,269.2 590.14,276.11 590.14,285.16C590.14,297.99 606.23,305.7 616.25,297.42C616.25,297.42 616.27,297.42 616.27,297.42C621.59,293.03 623.63,287.35 621.92,281.29C619.84,273.91 614.41,269.19 606.61,269.19Z"
           id="path5" />
      </g>
      <path
         id="elephant-head"
         fill="#F5F7FA"
         d="M566.17,175.21C538.94,175.18 519.93,181.16 497.03,196.94C494.32,198.82 491.55,200.68 489.29,202.16C487.16,203.56 485.18,205.12 482.67,205.68C477.69,206.78 472.57,207.35 467.5,207.82C443.29,210.14 428.23,216.62 413.58,231.1C395.36,249.12 386.06,276.45 389.67,301.88C393.27,327.31 403.49,346.11 425.73,368.29C441.89,384.42 459.98,396.71 477.02,403.9C494.06,411.07 510.09,413.2 522.13,408.69C529.88,405.78 539.21,397.58 542.74,390.5C551.32,373.37 550.19,350.99 542.73,333.57C542.3,332.66 540.68,331.72 540.34,333.25C539.27,336.46 539.19,340.17 538.77,343.51C536.19,363.67 531.37,376.93 524.09,383.92C516.81,390.9 507.02,391.96 493.5,387.45C474.91,381.24 457.9,370.2 440.9,353.27C415.19,327.68 406.56,304.44 412.28,276.69C418.32,247.32 441.99,229.12 474.29,229.12C478.91,229.12 484.36,229.3 488.81,227.82C488.81,227.82 488.83,227.82 488.83,227.82C490.14,227.37 492.27,226.15 495.02,224.43C508.47,216.1 520.49,205.63 535.82,200.72C563.04,192.03 590.6,196.12 612.79,212.09C623.19,219.58 631.72,228.44 642.29,242.78C663.51,271.58 682.25,289.88 699.99,298.89C705.28,301.59 719.48,303.3 727.7,304.27C739.87,305.69 752.38,300.57 766.46,290.12C772.18,285.88 786.12,270.16 786.12,270.13C786.12,270.13 792.91,261.25 797.75,251.25C804.75,236.75 810.13,240.31 811.57,239.48C813.11,238.6 810.79,238.55 814.18,239.33C819.48,240.56 824.02,240.24 824.89,240.43C826.71,240.81 825.94,241.11 827.75,241.89C831.48,243.5 826.01,260.45 823.96,269.4C822.19,277.13 812.87,293.68 809.72,297.51C806.04,301.97 791.45,319.33 788.8,321.92C776.46,333.94 767.59,339.12 752.03,346.94C731.31,357.34 709.42,360.92 683.94,360.93C659.73,360.93 644.23,361.41 631.97,366.66C619.71,371.9 611.95,380.57 605.69,393.67C591.67,422.96 603.19,456.96 612.96,485.78C615.51,493.3 617.91,501.23 621.7,508.26C622.62,509.99 623.74,511.55 625.66,509.96C628.1,508 630.31,505.73 632.5,503.51C632.5,503.51 639.36,496.58 639.36,496.58C639.67,496.28 639.76,495.83 639.6,495.42C639.6,495.42 635.77,485.39 635.77,485.39C635.77,485.39 635.77,485.38 635.77,485.38C624.88,456.8 620.46,437.32 621.24,421.59C621.95,406.77 624.57,400.03 632.69,391.92C637.15,387.46 639.87,385.23 645.68,383.84C651.48,382.44 660.45,381.96 676.89,381.4C718.07,380.01 738.08,375.63 765.05,362.17C780.04,354.68 796.71,341.88 808.25,329.73C808.36,329.72 808.48,329.67 808.57,329.63C808.57,329.63 810.28,327.79 810.28,327.79C810.28,327.79 810.32,327.76 810.32,327.76C810.32,327.76 813.54,324.02 813.54,324.02C813.55,324.01 813.56,323.99 813.57,323.98C813.57,323.98 816.31,320.42 816.31,320.42C817.45,319.66 818.41,317.56 819.3,316.47C819.86,315.76 820.73,314.57 820.72,314.44C843.39,281.58 856.63,244.73 844.24,227.36C838.02,218.67 814.32,216.75 804.24,219.33C797.6,221.03 785.58,232.26 776.08,248.32C771.39,256.25 760.3,268.69 758.88,270.07C752.38,276.39 744.07,280.39 738.91,281.82C731.92,283.73 718.75,283.31 712.35,280.74C699.26,275.52 684.05,261.42 665.7,237.23C648.08,213.98 633.13,198.5 617.58,188.79C602.04,179.09 585.9,175.23 566.17,175.21Z" />
      <path
         id="elephant-haunch"
         fill="#F5F7FA"
         d="M368.01,286.84C367.25,286.84 366.89,287.09 366.2,287.42C356.64,291.91 347.9,298.95 339.69,305.49C312.69,326.95 295.6,349.82 284.75,379.05C281.71,387.26 278.86,401.75 277.66,414.87C276.37,429.2 276.87,436.9 281.38,471.63C283.79,490.22 277.99,513.28 265.3,535.05C264.25,536.83 263.5,538.23 263.09,539.38C262.07,542.08 263.97,543.53 266.73,543.04C281.44,540.29 293.08,529.53 299.67,516.47C299.67,516.47 301.13,513.58 301.13,513.58C301.13,513.58 316.01,542.77 316.01,542.77C316.69,544.12 317.38,545.48 318.07,546.83C318.07,546.83 318.56,546.83 318.56,546.83C318.56,546.83 334.51,578.72 334.51,578.72C334.51,578.72 334.51,578.73 334.51,578.73C339.32,587.87 344.5,596.83 349.1,606.09C349.58,607.03 349.76,607.21 348.63,606.96C348.63,606.96 360.31,630.33 360.31,630.33C360.31,630.33 360.48,630.14 360.48,630.14C360.66,629.83 360.61,629.87 360.64,629.77C362.43,624.4 364.53,619.15 368.62,615.09C368.62,615.09 374.01,609.71 374.01,609.71C374.34,609.37 374.43,608.87 374.21,608.44C374.21,608.44 370.79,601.64 370.79,601.64C370.79,601.64 370.79,601.63 370.79,601.63C368.88,597.83 361.42,583.73 354.16,570.18C337.97,539.98 315.53,494.2 310.19,480.5C295,441.54 295,406.94 310.09,374.29C320.27,352.25 340.21,329.79 363.07,314.68C363.07,314.68 369.29,310.58 369.29,310.58C369.59,310.37 369.78,310.04 369.78,309.67C369.78,309.67 369.87,298.8 369.87,298.8C369.89,295.79 369.81,293.06 369.67,291.04C369.6,289.91 369.69,286.84 368.01,286.84Z" />
      <path
         id="elephant-foreleg"
         fill="#F5F7FA"
         d="M506.78,482C498.13,481.98 488.63,484.18 478.15,488.53C462.71,494.91 447.69,508.04 440.53,521.47C434.74,532.33 432.36,542.94 432.51,557C432.56,562.06 432.32,567.59 433.36,572.58C434.38,577.1 438.31,577.05 442.36,577.46C442.36,577.46 442.36,577.45 442.36,577.45C445.15,577.72 449.27,578.02 451.64,579.71C452.63,580.4 456.01,582.63 456.01,579.98C454.25,564.14 449.94,546.49 458.76,531.9C464.16,522.95 473.22,514.99 482.94,509.74C492.67,504.48 503.04,501.99 510.88,503.63C516.18,504.74 520.38,507.17 524.88,512.5C533.88,523.14 538.53,536.56 545.45,548.5C546.15,549.71 547.6,553.11 549.32,553.15C549.32,553.15 549.33,553.15 549.33,553.15C552.44,553.2 555.93,550.77 558.55,549.39C560.81,548.2 566.84,545.93 565.82,542.57C563.77,535.82 559.81,529.51 556.49,523.35C551.43,513.94 545.83,504.22 543.07,500.76C533.19,488.33 521.2,482.03 506.78,482Z" />
      <path
         id="elephant-eye"
         fill="#F5F7FA"
         d="M606.61,269.19C597.3,269.2 590.14,276.11 590.14,285.16C590.14,297.99 606.23,305.7 616.25,297.42C616.25,297.42 616.27,297.42 616.27,297.42C621.59,293.03 623.63,287.35 621.92,281.29C619.84,273.91 614.41,269.19 606.61,269.19Z" />
    </g>
    <g
       id="brand-broom">
      <g
         id="broom-clearance"
         fill="#242B36"
         stroke="#242B36"
         stroke-width="39.451"
         stroke-linejoin="round"
         stroke-linecap="round">
        <path
           d="M276.34,642.18C239.95,644.85 205.82,655.79 176.63,678.28C172.09,681.73 167.75,685.38 163.42,689.03C161.15,691.1 156.22,692.98 157.2,695.93C157.3,696.23 157.69,696.33 157.99,696.33C168.45,696.82 178.51,691.4 188.66,688.83C191.13,688.24 196.06,685.78 196.16,688.24C196.65,694.55 190.24,699.48 186.69,704.71C174.56,722.47 161.64,738.64 144.77,752.05C139.55,756.29 134.22,759.75 128.4,763.2C122.78,766.45 115.29,767.44 111.54,772.67C110.85,773.65 121.79,781.05 122.88,781.74C134.91,788.94 149.51,795.05 163.42,797.03C182.55,799.69 201.98,798.41 220.42,792.59C227.72,790.32 250.5,778.39 252.28,780.26C254.15,782.43 246.36,794.07 246.06,794.56C240.15,804.42 232.06,812.71 222.59,819.22C217.46,822.77 200.99,830.46 207.3,830.07C254.65,827.21 308.4,797.13 338.97,761.72C352.39,746.04 360.97,733.22 372.8,715.66C375.37,711.81 368.36,707.57 366,703.63C362.64,698.01 358.01,687.55 355.94,682.82C354.46,679.17 352.88,675.52 351.69,671.87C349.03,664.27 350.02,654.61 344.3,648.99C339.56,644.25 331.18,646.23 324.57,645.14C308.89,642.68 292.22,641.1 276.34,642.18Z"
           id="path6" />
        <path
           d="M852.92,399.46C835.76,407.75 785.06,437.73 774.02,444.43C758.14,454.2 741.86,464.55 728.65,477.87C700.84,505.88 684.17,541.29 652.31,565.84C635.35,578.86 615.52,588.33 596.39,597.6C511.27,638.53 563.25,612.89 470.64,655.4C466.4,657.37 475.47,663.58 478.14,667.43C480.6,670.98 481.98,675.22 481.49,679.46C480.11,692.78 449.14,692.98 439.67,690.61C437.8,690.21 435.92,689.42 434.15,688.64C431.98,687.55 430,685.78 428.43,683.9C424.38,678.77 424.78,677.39 425.37,677.29C436.22,675.91 451.8,681.93 457.92,672.95C458.51,672.07 446.97,653.13 442.73,643.37C439.67,636.36 439.18,633.5 437.3,624.73C436.81,622.56 436.71,620.29 436.22,618.12C436.02,617.53 435.82,616.34 435.23,616.64C425.07,622.06 419.65,636.17 409,639.82C408.6,639.91 408.11,640.01 407.91,639.72C405.74,636.96 407.32,632.62 407.62,629.06C408.8,613.58 426.36,594.55 442.93,597.11C451.41,598.39 452.29,619.2 456.14,617.53C507.62,594.35 563.65,572.06 612.86,542.86C646.2,523.14 659.81,496.61 683.87,465.74C694.23,452.52 707.74,440.09 721.35,430.33C755.08,406.07 791.28,385.85 826.59,364.15C828.36,363.07 836.65,358.23 838.32,357.25C853.02,348.27 879.84,332.59 895.62,324.01C901.64,320.76 912.49,314.05 920.68,313.46C946.22,311.39 944.64,352.81 933,366.03C921.96,378.55 910.71,378.06 893.46,383.09C879.15,387.33 866.63,393.84 852.92,399.46Z"
           id="path7" />
        <path
           d="M389.27,626.7C386.9,627.59 381.09,629.66 378.82,632.42C374.77,637.15 378.03,646.62 379.21,651.06C382.96,664.47 388.78,678.38 395.58,690.51C396.37,691.79 403.87,705.99 409,703.82C427.34,696.13 419.95,694.55 411.76,678.38C408.6,672.26 405.64,666.05 402.88,659.74C399.83,652.54 396.87,645.24 394.3,637.84C392.63,633.01 392.92,625.32 389.27,626.7Z"
           id="path8" />
      </g>
      <path
         id="broom-bristles"
         fill="#F5F7FA"
         d="M276.34,642.18C239.95,644.85 205.82,655.79 176.63,678.28C172.09,681.73 167.75,685.38 163.42,689.03C161.15,691.1 156.22,692.98 157.2,695.93C157.3,696.23 157.69,696.33 157.99,696.33C168.45,696.82 178.51,691.4 188.66,688.83C191.13,688.24 196.06,685.78 196.16,688.24C196.65,694.55 190.24,699.48 186.69,704.71C174.56,722.47 161.64,738.64 144.77,752.05C139.55,756.29 134.22,759.75 128.4,763.2C122.78,766.45 115.29,767.44 111.54,772.67C110.85,773.65 121.79,781.05 122.88,781.74C134.91,788.94 149.51,795.05 163.42,797.03C182.55,799.69 201.98,798.41 220.42,792.59C227.72,790.32 250.5,778.39 252.28,780.26C254.15,782.43 246.36,794.07 246.06,794.56C240.15,804.42 232.06,812.71 222.59,819.22C217.46,822.77 200.99,830.46 207.3,830.07C254.65,827.21 308.4,797.13 338.97,761.72C352.39,746.04 360.97,733.22 372.8,715.66C375.37,711.81 368.36,707.57 366,703.63C362.64,698.01 358.01,687.55 355.94,682.82C354.46,679.17 352.88,675.52 351.69,671.87C349.03,664.27 350.02,654.61 344.3,648.99C339.56,644.25 331.18,646.23 324.57,645.14C308.89,642.68 292.22,641.1 276.34,642.18Z" />
      <path
         id="broom-handle"
         fill="#F5F7FA"
         d="M852.92,399.46C835.76,407.75 785.06,437.73 774.02,444.43C758.14,454.2 741.86,464.55 728.65,477.87C700.84,505.88 684.17,541.29 652.31,565.84C635.35,578.86 615.52,588.33 596.39,597.6C511.27,638.53 563.25,612.89 470.64,655.4C466.4,657.37 475.47,663.58 478.14,667.43C480.6,670.98 481.98,675.22 481.49,679.46C480.11,692.78 449.14,692.98 439.67,690.61C437.8,690.21 435.92,689.42 434.15,688.64C431.98,687.55 430,685.78 428.43,683.9C424.38,678.77 424.78,677.39 425.37,677.29C436.22,675.91 451.8,681.93 457.92,672.95C458.51,672.07 446.97,653.13 442.73,643.37C439.67,636.36 439.18,633.5 437.3,624.73C436.81,622.56 436.71,620.29 436.22,618.12C436.02,617.53 435.82,616.34 435.23,616.64C425.07,622.06 419.65,636.17 409,639.82C408.6,639.91 408.11,640.01 407.91,639.72C405.74,636.96 407.32,632.62 407.62,629.06C408.8,613.58 426.36,594.55 442.93,597.11C451.41,598.39 452.29,619.2 456.14,617.53C507.62,594.35 563.65,572.06 612.86,542.86C646.2,523.14 659.81,496.61 683.87,465.74C694.23,452.52 707.74,440.09 721.35,430.33C755.08,406.07 791.28,385.85 826.59,364.15C828.36,363.07 836.65,358.23 838.32,357.25C853.02,348.27 879.84,332.59 895.62,324.01C901.64,320.76 912.49,314.05 920.68,313.46C946.22,311.39 944.64,352.81 933,366.03C921.96,378.55 910.71,378.06 893.46,383.09C879.15,387.33 866.63,393.84 852.92,399.46Z" />
      <path
         id="broom-ferrule"
         fill="#F5F7FA"
         d="M389.27,626.7C386.9,627.59 381.09,629.66 378.82,632.42C374.77,637.15 378.03,646.62 379.21,651.06C382.96,664.47 388.78,678.38 395.58,690.51C396.37,691.79 403.87,705.99 409,703.82C427.34,696.13 419.95,694.55 411.76,678.38C408.6,672.26 405.64,666.05 402.88,659.74C399.83,652.54 396.87,645.24 394.3,637.84C392.63,633.01 392.92,625.32 389.27,626.7Z" />
      <path
         id="broom-grip-slot"
         fill="#242B36"
         d="M918.7,332.79C910.62,336.44 897.5,342.45 889.02,347.29C885.76,349.16 878.27,350.54 879.84,353.99C881.42,357.35 883.4,360.6 885.37,363.86C886.45,365.63 887.14,365.53 889.02,365.04C903.71,361.29 921.07,361.78 922.16,344.13C922.45,339.49 923.14,330.72 918.7,332.79Z" />
    </g>
  </g>
  <path
     d="m 329.17871,152.64734 h -0.29297 v 43.21289 H 305.74121 V 86.363163 h 23.14453 V 97.64246 h 0.29297 q 8.56934,-13.110352 24.09668,-13.110352 14.5752,0 22.48535,10.03418 7.9834,9.960942 7.9834,27.172852 0,18.75 -9.30176,30.10254 -9.22851,11.35254 -24.60937,11.35254 -13.54981,0 -20.6543,-10.54688 z m -0.65918,-30.76172 v 6.00586 q 0,7.76368 4.10156,12.6709 4.10157,4.90723 10.76661,4.90723 7.91015,0 12.23144,-6.0791 4.39453,-6.15235 4.39453,-17.3584 0,-19.77539 -15.38086,-19.77539 -7.10449,0 -11.64551,5.41992 -4.46777,5.34668 -4.46777,14.20898 z m 143.77442,30.90821 q 0,20.87402 -12.08497,32.2998 -12.08496,11.49903 -35.00976,11.49903 -15.16113,0 -24.02344,-4.32129 v -19.48243 q 11.57227,6.73829 23.36426,6.73829 11.71875,0 18.16406,-6.22559 6.44531,-6.15234 6.44531,-16.77246 v -5.93262 h -0.29296 q -7.91016,12.59766 -23.36426,12.59766 -14.35547,0 -22.77832,-10.10742 -8.42285,-10.10743 -8.42285,-27.09961 0,-19.04297 9.375,-30.249027 9.375,-11.206055 24.68261,-11.206055 13.69629,0 20.50782,10.546875 h 0.29296 v -8.71582 h 23.14454 z m -22.85157,-27.46582 v -5.93262 q 0,-7.10449 -4.24804,-12.08496 -4.17481,-5.05371 -10.91309,-5.05371 -7.69043,0 -12.08496,6.00586 -4.39453,6.00586 -4.39453,16.91894 0,9.375 4.1748,14.86817 4.17481,5.41992 11.42578,5.41992 7.17774,0 11.57227,-5.49317 4.46777,-5.5664 4.46777,-14.64843 z m 138.94043,36.03515 H 564.50586 L 521.21973,95.371952 q -3.8086,-5.786133 -5.27344,-8.71582 h -0.29297 q 0.58594,5.566406 0.58594,16.992188 v 57.71484 H 493.90039 V 56.333866 h 25.48828 l 41.67481,63.940434 q 2.85644,4.32128 5.27343,8.56933 h 0.29297 q -0.58593,-3.66211 -0.58593,-14.42871 V 56.333866 h 22.33886 z m 33.47168,-86.865231 q -5.85937,0 -9.59472,-3.442383 -3.73536,-3.515625 -3.73536,-8.569336 0,-5.200195 3.73536,-8.496094 3.73535,-3.295898 9.59472,-3.295898 5.93262,0 9.59473,3.295898 3.73535,3.295899 3.73535,8.496094 0,5.273437 -3.73535,8.642578 -3.66211,3.369141 -9.59473,3.369141 z m 11.42578,86.865231 H 610.13574 V 86.363163 h 23.14453 z m 138.57422,0 H 748.7832 v -42.77343 q 0,-16.33301 -12.01172,-16.33301 -5.71289,0 -9.30175,4.90722 -3.58887,4.90723 -3.58887,12.23145 v 41.96777 h -23.14453 v -43.21289 q 0,-15.89355 -11.79199,-15.89355 -5.93262,0 -9.52149,4.6875 -3.51562,4.6875 -3.51562,12.74414 v 41.6748 H 652.7627 V 86.363163 h 23.14453 v 11.71875 h 0.29297 q 3.58886,-6.005859 10.03417,-9.741211 6.51856,-3.808594 14.20899,-3.808594 15.89355,0 21.75293,13.989258 8.56933,-13.989258 25.19531,-13.989258 24.46289,0 24.46289,30.175782 z m 41.74805,-8.71582 h -0.29297 v 8.71582 H 790.16504 V 50.328007 h 23.14453 V 97.64246 h 0.29297 q 8.56933,-13.110352 24.38965,-13.110352 14.50195,0 22.33886,9.960938 7.83692,9.960934 7.83692,27.246094 0,18.75 -9.15527,30.10254 -9.15528,11.35254 -24.4629,11.35254 -13.84277,0 -20.94726,-10.54688 z m -0.65918,-31.64062 v 7.69043 q 0,7.25097 4.1748,12.01172 4.17481,4.76074 10.69336,4.76074 7.91016,0 12.23145,-6.0791 4.39453,-6.15235 4.39453,-17.3584 0,-9.30176 -4.02832,-14.50195 -3.95508,-5.27344 -11.35254,-5.27344 -6.95801,0 -11.57227,5.20019 -4.54101,5.2002 -4.54101,13.54981 z m 141.50391,40.35644 h -23.07129 v -11.42578 h -0.36621 q -8.56934,13.25684 -22.92481,13.25684 -26.07422,0 -26.07422,-31.56739 V 86.363163 h 23.07129 v 43.212887 q 0,15.89356 12.59766,15.89356 6.22558,0 9.96093,-4.32129 3.73536,-4.39453 3.73536,-11.86524 V 86.363163 h 23.07129 z m 14.57519,-1.97754 v -18.75 q 5.71289,3.44239 11.35254,5.12696 5.71289,1.68457 10.7666,1.68457 6.15235,0 9.668,-1.68457 3.5888,-1.68457 3.5888,-5.12696 0,-2.19726 -1.6113,-3.66211 -1.6113,-1.46484 -4.1748,-2.56347 -2.49023,-1.09863 -5.49316,-1.97754 -3.00293,-0.87891 -5.78613,-1.97754 -4.46778,-1.68457 -7.91016,-3.58887 -3.36914,-1.97754 -5.71289,-4.54101 -2.27051,-2.56348 -3.51562,-5.93262 -1.17188,-3.36914 -1.17188,-7.9834 0,-6.29883 2.70996,-10.839842 2.7832,-4.541016 7.32422,-7.397461 4.61426,-2.929688 10.47363,-4.248047 5.93262,-1.391602 12.30473,-1.391602 4.9804,0 10.1074,0.805664 5.1269,0.732422 10.1074,2.197266 v 17.871092 q -4.3945,-2.56347 -9.4482,-3.80859 -4.9805,-1.31836 -9.8145,-1.31836 -2.2705,0 -4.32128,0.43945 -1.97754,0.36621 -3.51562,1.17188 -1.53809,0.73242 -2.417,1.97754 -0.8789,1.17187 -0.8789,2.70996 0,2.05078 1.31836,3.51562 1.31836,1.46485 3.44238,2.56348 2.12402,1.02539 4.68746,1.9043 2.6368,0.80566 5.2002,1.68457 4.6143,1.61132 8.3496,3.51562 3.7354,1.9043 6.3721,4.46777 2.71,2.56348 4.1016,6.00586 1.4648,3.44239 1.4648,8.20313 0,6.66504 -2.9297,11.42578 -2.8564,4.6875 -7.6904,7.69043 -4.7607,2.92969 -11.0596,4.24805 -6.22555,1.3916 -12.96383,1.3916 -12.37793,0 -22.92481,-3.8086 z"
     id="text8"
     style="font-weight:700;font-size:150px;font-family:'Segoe UI', Arial, Helvetica, sans-serif;dominant-baseline:central;fill:#f5f7fa"
     aria-label="pgNimbus" />
</svg>

